<svg width="327" height="299" viewBox="0 0 327 299" fill="none" xmlns="http://www.w3.org/2000/svg">
<path d="M158.794 197.795L206.301 150.544L159.353 102.737L111.288 150.544L158.794 197.795Z" fill="#C8AC7A"/>
<path d="M206.283 150.502L159.336 102.695L111.271 150.502L158.777 197.753L206.283 150.502Z" fill="#C8AC7A"/>
<path d="M195.702 115.481L226.441 84.3507C209.451 62.1148 175.023 56 159.932 56C87.2757 58.7795 67.3417 119.743 66.0376 149.39C64.361 215.542 119.132 242.781 159.373 243.893C190.264 244.746 212.468 229.995 227 215.542L195.702 184.412L159.373 219.989L90.0692 149.946L159.932 81.0153L195.702 115.481Z" fill="#165D7D"/>
</svg>
